<svg width="49" height="71" viewBox="0 0 49 71" fill="none" xmlns="http://www.w3.org/2000/svg">
<path d="M18.8741 0V4.61039H30.1259V0H18.8741ZM20.3259 7.37662V11.7719L19.4185 12.1561C16.3333 13.4623 12.0504 14.661 8.63852 16.3976C6.8963 17.289 5.44444 18.2418 4.42815 19.3636H44.5719C43.5556 18.2418 42.1037 17.289 40.3615 16.3976C36.9496 14.661 32.6667 13.4623 29.5815 12.1561L28.6741 11.7719V7.37662H20.3259ZM0 22.1299V24.5887H49V22.1299H0ZM2.9037 27.355V31.658H46.0963V27.355H2.9037ZM0 34.4242V39.0346H49V34.4242H0ZM2.9037 41.8009V56.2468H46.0963V41.8009H2.9037ZM2.9037 59.013V65.0065C2.9037 65.1602 3.10333 65.7595 3.62963 66.4357C4.15593 67.0965 4.97259 67.8649 5.95259 68.5565C7.91259 69.9396 10.5259 71 12.8852 71H36.1148C38.4741 71 41.0874 69.9396 43.0474 68.5565C44.0274 67.8649 44.8441 67.0965 45.3704 66.4357C45.8967 65.7595 46.0963 65.1602 46.0963 65.0065V59.013H2.9037Z" fill="#294E80"/>
</svg>
