<svg width="76" height="76" viewBox="0 0 76 76" fill="none" xmlns="http://www.w3.org/2000/svg">
<path fill-rule="evenodd" clip-rule="evenodd" d="M16.625 4.75C15.9951 4.75 15.391 5.00023 14.9456 5.44563C14.5002 5.89102 14.25 6.49511 14.25 7.125V68.875C14.25 69.5049 14.5002 70.109 14.9456 70.5544C15.391 70.9998 15.9951 71.25 16.625 71.25H59.375C60.0049 71.25 60.609 70.9998 61.0544 70.5544C61.4998 70.109 61.75 69.5049 61.75 68.875V23.75C61.7506 23.4379 61.6896 23.1288 61.5706 22.8402C61.4516 22.5517 61.2769 22.2895 61.0565 22.0685L44.4315 5.4435C44.2105 5.2231 43.9483 5.0484 43.6598 4.9294C43.3712 4.81041 43.0621 4.74945 42.75 4.75H16.625ZM53.6418 21.375L45.125 12.8583V21.375H53.6418ZM35.625 26.125H23.75V21.375H35.625V26.125ZM52.25 40.375H23.75V35.625H52.25V40.375ZM23.75 54.625H52.25V49.875H23.75V54.625Z" fill="#294E80"/>
</svg>
