<svg width="87" height="87" viewBox="0 0 87 87" fill="none" xmlns="http://www.w3.org/2000/svg">
<path d="M65.25 67.0625C63.8079 67.0625 62.4248 66.4896 61.4051 65.4699C60.3854 64.4502 59.8125 63.0671 59.8125 61.625C59.8125 60.1829 60.3854 58.7998 61.4051 57.7801C62.4248 56.7604 63.8079 56.1875 65.25 56.1875C66.6921 56.1875 68.0752 56.7604 69.0949 57.7801C70.1146 58.7998 70.6875 60.1829 70.6875 61.625C70.6875 63.0671 70.1146 64.4502 69.0949 65.4699C68.0752 66.4896 66.6921 67.0625 65.25 67.0625ZM70.6875 34.4375L77.7925 43.5H61.625V34.4375M21.75 67.0625C20.3079 67.0625 18.9248 66.4896 17.9051 65.4699C16.8854 64.4502 16.3125 63.0671 16.3125 61.625C16.3125 60.1829 16.8854 58.7998 17.9051 57.7801C18.9248 56.7604 20.3079 56.1875 21.75 56.1875C23.1921 56.1875 24.5752 56.7604 25.5949 57.7801C26.6146 58.7998 27.1875 60.1829 27.1875 61.625C27.1875 63.0671 26.6146 64.4502 25.5949 65.4699C24.5752 66.4896 23.1921 67.0625 21.75 67.0625ZM72.5 29H61.625V14.5H10.875C6.85125 14.5 3.625 17.7262 3.625 21.75V61.625H10.875C10.875 64.5092 12.0208 67.2753 14.0602 69.3148C16.0997 71.3542 18.8658 72.5 21.75 72.5C24.6342 72.5 27.4003 71.3542 29.4398 69.3148C31.4792 67.2753 32.625 64.5092 32.625 61.625H54.375C54.375 64.5092 55.5208 67.2753 57.5602 69.3148C59.5997 71.3542 62.3658 72.5 65.25 72.5C68.1342 72.5 70.9003 71.3542 72.9398 69.3148C74.9793 67.2753 76.125 64.5092 76.125 61.625H83.375V43.5L72.5 29Z" fill="#294E80"/>
</svg>
