<svg width="71" height="71" viewBox="0 0 71 71" fill="none" xmlns="http://www.w3.org/2000/svg">
<path d="M63.6451 25.5342C67.3096 21.8697 65.6386 17.5895 63.6451 15.5081L54.8503 6.71329C51.1565 3.04879 46.9056 4.7198 44.8242 6.71329L39.8405 11.7263H32.2476C26.6776 11.7263 23.4528 14.6579 21.8111 18.0293L8.7948 31.0456V42.772L6.71337 44.8241C3.04886 48.5179 4.71988 52.7688 6.71337 54.8502L15.5082 63.645C17.0912 65.2281 18.7916 65.8144 20.4039 65.8144C22.4854 65.8144 24.3909 64.7883 25.5343 63.645L33.4496 55.7004H43.974C48.9578 55.7004 51.4789 52.5929 52.3877 49.544C55.7004 48.6645 57.518 46.1433 58.2509 43.6808C62.7949 42.5082 64.4952 38.1987 64.4952 35.1791V26.3843H62.7656L63.6451 25.5342ZM58.632 35.1791C58.632 36.4984 58.075 38.1108 55.7004 38.1108H52.7688V41.0424C52.7688 42.3616 52.2118 43.974 49.8372 43.974H46.9056V46.9056C46.9056 48.2248 46.3486 49.8372 43.974 49.8372H31.0457L21.43 59.4528C20.5212 60.303 19.9935 59.8046 19.671 59.4821L10.9056 50.746C10.0554 49.8372 10.5538 49.3095 10.8762 48.987L14.658 45.1759V33.4495L20.5212 27.5863V32.2475C20.5212 35.7948 22.8665 41.0424 29.316 41.0424C35.7655 41.0424 38.1108 35.7948 38.1108 32.2475H58.632V35.1791ZM59.4822 21.3713L54.4985 26.3843H32.2476V32.2475C32.2476 33.5668 31.6906 35.1791 29.316 35.1791C26.9414 35.1791 26.3844 33.5668 26.3844 32.2475V23.4527C26.3844 22.1042 26.8828 17.5895 32.2476 17.5895H42.2444L48.9284 10.9055C49.8372 10.0553 50.3649 10.5537 50.6874 10.8762L59.4529 19.6123C60.3031 20.5211 59.8047 21.0488 59.4822 21.3713Z" fill="#294E80"/>
</svg>
