<svg width="111" height="111" viewBox="0 0 111 111" fill="none" xmlns="http://www.w3.org/2000/svg">
<path d="M13.2455 27.3741H95.9642V82.5199H13.2455V27.3741ZM54.6049 41.1605C58.2613 41.1605 61.7679 42.613 64.3534 45.1985C66.9388 47.784 68.3913 51.2906 68.3913 54.947C68.3913 58.6034 66.9388 62.11 64.3534 64.6955C61.7679 67.2809 58.2613 68.7334 54.6049 68.7334C50.9485 68.7334 47.4418 67.2809 44.8564 64.6955C42.2709 62.11 40.8184 58.6034 40.8184 54.947C40.8184 51.2906 42.2709 47.784 44.8564 45.1985C47.4418 42.613 50.9485 41.1605 54.6049 41.1605ZM31.6275 36.5651C31.6275 39.0026 30.6591 41.3404 28.9355 43.064C27.2118 44.7877 24.8741 45.756 22.4365 45.756V64.138C24.8741 64.138 27.2118 65.1063 28.9355 66.8299C30.6591 68.5536 31.6275 70.8913 31.6275 73.3289H77.5823C77.5823 70.8913 78.5506 68.5536 80.2743 66.8299C81.9979 65.1063 84.3357 64.138 86.7733 64.138V45.756C84.3357 45.756 81.9979 44.7877 80.2743 43.064C78.5506 41.3404 77.5823 39.0026 77.5823 36.5651H31.6275Z" fill="#294E80"/>
</svg>
